<?xml version="1.0" encoding="UTF-8"?>
<svg id="Layer_1" data-name="Layer 1" xmlns="http://www.w3.org/2000/svg" width="384" height="384" viewBox="0 0 384 384" fill="currentColor" >
  <path d="M40.01,344.07c-16.36-16.26-26.76-39.86-28.05-62.95-3.38-60.74,1.92-125.33.88-186.33C19.66,49.79,57.38,15.23,103.09,12.69c60.86-3.38,125.58,1.92,186.7.87,45.1,6.67,79.71,44.53,82.25,90.07,3.38,60.74-1.92,125.33-.88,186.33-6.22,41.65-39.58,75.06-81.38,81.22-61.12-1.04-125.84,4.25-186.7.87-23.32-1.29-46.62-11.64-63.08-27.99ZM137.99,193.11l-51.75,46.04c-7.75,11.06,5.05,24.22,16.47,17.19,18.64-18.21,40.46-34.51,58.93-52.72,8.81-8.68,8.82-13.81,0-22.5-18.35-18.09-40.03-34.25-58.51-52.38-11.11-7.73-24.26,5.03-17.22,16.44l51.61,46.38.47,1.54ZM189.56,234.47c-13.11,3.28-12.64,21.13.64,23.71l98.94.07c14.13-1.96,14.67-21.11.68-23.89l-100.25.11Z"/>
</svg>